<?xml version="1.0" encoding="utf-8"?>
<!-- Generator: Adobe Illustrator 24.0.1, SVG Export Plug-In . SVG Version: 6.00 Build 0)  -->
<svg version="1.1" id="Layer_1" xmlns="http://www.w3.org/2000/svg" xmlns:xlink="http://www.w3.org/1999/xlink" x="0px" y="0px"
	 viewBox="0 0 24 24" style="enable-background:new 0 0 24 24;" xml:space="preserve">
<style type="text/css">
	.st0{fill:#FFFFFF;}
	.st1{fill:#3B3B3B;}
	.st2{fill:none;stroke:#FFFFFF;stroke-miterlimit:10;}
	.st3{fill:url(#SVGID_1_);}
	.st4{fill:none;stroke:#FFFFFF;stroke-width:0.5;stroke-miterlimit:10;}
	.st5{fill:url(#SVGID_2_);}
	.st6{fill:url(#SVGID_3_);}
	.st7{fill:url(#SVGID_4_);}
	.st8{fill:url(#SVGID_5_);}
	.st9{fill:#3A0F10;}
	.st10{fill:none;}
	.st11{fill:url(#SVGID_6_);}
</style>
<circle class="st1" cx="12" cy="5.5" r="4.4"/>
<g>
	<path class="st10" d="M15.5,12.3l-1.2,10.6c2.4-1.2,4,0.2,4-3.5C18.3,16.4,17.2,13.8,15.5,12.3z"/>
	<path class="st10" d="M5.7,19.4c0,3.7,1.7,2.2,4,3.5L8.5,12.3C6.8,13.8,5.7,16.4,5.7,19.4z"/>
	<path class="st1" d="M12,10.8c-1.3,0-2.5,0.5-3.5,1.4l1.2,10.6c0.7,0.4,1.5,0.6,2.2,0.6c0.8,0,1.5-0.2,2.2-0.6l1.2-10.6
		C14.5,11.4,13.3,10.8,12,10.8z"/>
</g>
</svg>
